# xmcd
#
# Track frame offsets: 
#        150
#        12906
#        25176
#        38075
#        57996
#        73986
#        88346
#        104942
#        118899
#        136813
#        147045
#        164503
#        177157
#        191672
#
# Disc length: 2723 seconds
#
# Revision: 8
# Processed by: cddbd v1.5.2PL0 Copyright (c) Steve Scherf et al.
# Submitted via: ExactAudioCopy v1.3
#
DISCID=d00aa10e
DTITLE=Clay Walker - Greatest Hits
DYEAR=1998
DGENRE=Country
TTITLE0=What's It To You
TTITLE1=You're Beginning To Get To Me
TTITLE2=Live Until I Die
TTITLE3=This Woman And This Man
TTITLE4=Dreaming With My Eyes Open
TTITLE5=Rumor Has It
TTITLE6=Hypnotize The Moon
TTITLE7=Then What
TTITLE8=Where Do I Fit In The Picture
TTITLE9=If I Could Make A Living
TTITLE10=Ordinary People
TTITLE11=Only On Days That End In "Y"
TTITLE12=Watch This
TTITLE13=Who Needs You Baby
EXTD=YEAR: 1998
EXTT0=
EXTT1=
EXTT2=
EXTT3=
EXTT4=
EXTT5=
EXTT6=
EXTT7=
EXTT8=
EXTT9=
EXTT10=
EXTT11=
EXTT12=
EXTT13=
PLAYORDER=
